<svg width="30" height="28" viewBox="0 0 30 28" fill="none" xmlns="http://www.w3.org/2000/svg">
<g filter="url(#filter0_d_32_16)">
<path d="M16 17.05C16.7333 16.7 17.4708 16.4375 18.2125 16.2625C18.9542 16.0875 19.7167 16 20.5 16C21.1 16 21.6875 16.05 22.2625 16.15C22.8375 16.25 23.4167 16.4 24 16.6V6.7C23.45 6.46667 22.8792 6.29167 22.2875 6.175C21.6958 6.05833 21.1 6 20.5 6C19.7167 6 18.9417 6.1 18.175 6.3C17.4083 6.5 16.6833 6.8 16 7.2V17.05ZM14.3375 19.3875C14.1292 19.3292 13.9333 19.25 13.75 19.15C13.1 18.7667 12.4167 18.4792 11.7 18.2875C10.9833 18.0958 10.25 18 9.5 18C8.8 18 8.1125 18.0917 7.4375 18.275C6.7625 18.4583 6.11667 18.7167 5.5 19.05C5.15 19.2333 4.8125 19.225 4.4875 19.025C4.1625 18.825 4 18.5333 4 18.15V6.1C4 5.91667 4.04583 5.74167 4.1375 5.575C4.22917 5.40833 4.36667 5.28333 4.55 5.2C5.33333 4.81667 6.1375 4.52083 6.9625 4.3125C7.7875 4.10417 8.63333 4 9.5 4C10.4667 4 11.4125 4.125 12.3375 4.375C13.2625 4.625 14.15 5 15 5.5C15.85 5 16.7375 4.625 17.6625 4.375C18.5875 4.125 19.5333 4 20.5 4C21.3667 4 22.2125 4.10417 23.0375 4.3125C23.8625 4.52083 24.6667 4.81667 25.45 5.2C25.6333 5.28333 25.7708 5.40833 25.8625 5.575C25.9542 5.74167 26 5.91667 26 6.1V18.15C26 18.5333 25.8375 18.825 25.5125 19.025C25.1875 19.225 24.85 19.2333 24.5 19.05C23.8833 18.7167 23.2375 18.4583 22.5625 18.275C21.8875 18.0917 21.2 18 20.5 18C19.75 18 19.0167 18.0958 18.3 18.2875C17.5833 18.4792 16.9 18.7667 16.25 19.15C16.0667 19.25 15.8708 19.3292 15.6625 19.3875C15.4542 19.4458 15.2333 19.475 15 19.475C14.7667 19.475 14.5458 19.4458 14.3375 19.3875ZM17 8.775C17 8.625 17.0542 8.47083 17.1625 8.3125C17.2708 8.15417 17.3917 8.05 17.525 8C18.0083 7.83333 18.4917 7.70833 18.975 7.625C19.4583 7.54167 19.9667 7.5 20.5 7.5C20.8333 7.5 21.1625 7.52083 21.4875 7.5625C21.8125 7.60417 22.1333 7.65833 22.45 7.725C22.6 7.75833 22.7292 7.84167 22.8375 7.975C22.9458 8.10833 23 8.25833 23 8.425C23 8.70833 22.9083 8.91667 22.725 9.05C22.5417 9.18333 22.3083 9.21667 22.025 9.15C21.7917 9.1 21.5458 9.0625 21.2875 9.0375C21.0292 9.0125 20.7667 9 20.5 9C20.0667 9 19.6417 9.04167 19.225 9.125C18.8083 9.20833 18.4083 9.31667 18.025 9.45C17.725 9.56667 17.4792 9.55833 17.2875 9.425C17.0958 9.29167 17 9.075 17 8.775ZM17 14.275C17 14.125 17.0542 13.9708 17.1625 13.8125C17.2708 13.6542 17.3917 13.55 17.525 13.5C18.0083 13.3333 18.4917 13.2083 18.975 13.125C19.4583 13.0417 19.9667 13 20.5 13C20.8333 13 21.1625 13.0208 21.4875 13.0625C21.8125 13.1042 22.1333 13.1583 22.45 13.225C22.6 13.2583 22.7292 13.3417 22.8375 13.475C22.9458 13.6083 23 13.7583 23 13.925C23 14.2083 22.9083 14.4167 22.725 14.55C22.5417 14.6833 22.3083 14.7167 22.025 14.65C21.7917 14.6 21.5458 14.5625 21.2875 14.5375C21.0292 14.5125 20.7667 14.5 20.5 14.5C20.0667 14.5 19.6417 14.5375 19.225 14.6125C18.8083 14.6875 18.4083 14.7917 18.025 14.925C17.725 15.0417 17.4792 15.0375 17.2875 14.9125C17.0958 14.7875 17 14.575 17 14.275ZM17 11.525C17 11.375 17.0542 11.2208 17.1625 11.0625C17.2708 10.9042 17.3917 10.8 17.525 10.75C18.0083 10.5833 18.4917 10.4583 18.975 10.375C19.4583 10.2917 19.9667 10.25 20.5 10.25C20.8333 10.25 21.1625 10.2708 21.4875 10.3125C21.8125 10.3542 22.1333 10.4083 22.45 10.475C22.6 10.5083 22.7292 10.5917 22.8375 10.725C22.9458 10.8583 23 11.0083 23 11.175C23 11.4583 22.9083 11.6667 22.725 11.8C22.5417 11.9333 22.3083 11.9667 22.025 11.9C21.7917 11.85 21.5458 11.8125 21.2875 11.7875C21.0292 11.7625 20.7667 11.75 20.5 11.75C20.0667 11.75 19.6417 11.7917 19.225 11.875C18.8083 11.9583 18.4083 12.0667 18.025 12.2C17.725 12.3167 17.4792 12.3083 17.2875 12.175C17.0958 12.0417 17 11.825 17 11.525Z" fill="url(#paint0_linear_32_16)"/>
</g>
<defs>
<filter id="filter0_d_32_16" x="-1" y="0" width="32" height="32" filterUnits="userSpaceOnUse" color-interpolation-filters="sRGB">
<feFlood flood-opacity="0" result="BackgroundImageFix"/>
<feColorMatrix in="SourceAlpha" type="matrix" values="0 0 0 0 0 0 0 0 0 0 0 0 0 0 0 0 0 0 127 0" result="hardAlpha"/>
<feOffset dy="4"/>
<feGaussianBlur stdDeviation="2"/>
<feComposite in2="hardAlpha" operator="out"/>
<feColorMatrix type="matrix" values="0 0 0 0 0 0 0 0 0 0 0 0 0 0 0 0 0 0 0.25 0"/>
<feBlend mode="normal" in2="BackgroundImageFix" result="effect1_dropShadow_32_16"/>
<feBlend mode="normal" in="SourceGraphic" in2="effect1_dropShadow_32_16" result="shape"/>
</filter>
<linearGradient id="paint0_linear_32_16" x1="15" y1="4" x2="15" y2="19.475" gradientUnits="userSpaceOnUse">
<stop stop-color="#4DBBFE"/>
<stop offset="1" stop-color="#2371A1"/>
</linearGradient>
</defs>
</svg>
