<svg width="197" height="53" viewBox="0 0 197 53" fill="none" xmlns="http://www.w3.org/2000/svg">
<path d="M38.208 7.552L25.856 51.904H12.8L0 7.552H11.072L19.52 43.712L27.456 7.552H38.208Z" fill="#141414"/>
<path d="M51.412 17.92V51.904H41.3V17.92H51.412ZM46.292 0C48.0413 0 49.4707 0.554667 50.58 1.664C51.732 2.73067 52.308 4.096 52.308 5.76C52.308 7.424 51.732 8.81067 50.58 9.92C49.4707 10.9867 48.0413 11.52 46.292 11.52C44.5427 11.52 43.1133 10.9867 42.004 9.92C40.8947 8.81067 40.34 7.424 40.34 5.76C40.34 4.096 40.8947 2.73067 42.004 1.664C43.1133 0.554667 44.5427 0 46.292 0Z" fill="#141414"/>
<path d="M80.6745 50.304C79.4372 51.1573 77.9865 51.8187 76.3225 52.288C74.7012 52.7573 73.0798 52.992 71.4585 52.992C64.0345 52.9493 60.3225 48.8533 60.3225 40.704V24.96H55.5225V17.92H60.3225V10.56L70.4345 9.408V17.92H78.2425L77.1545 24.96H70.4345V40.576C70.4345 42.1547 70.6905 43.2853 71.2025 43.968C71.7145 44.6507 72.5252 44.992 73.6345 44.992C74.7865 44.992 76.0025 44.6293 77.2825 43.904L80.6745 50.304Z" fill="#141414"/>
<path d="M97.645 16.832C102.85 16.832 106.925 18.432 109.869 21.632C112.813 24.7893 114.285 29.2267 114.285 34.944C114.285 38.5707 113.602 41.7493 112.237 44.48C110.914 47.168 108.994 49.2587 106.477 50.752C104.002 52.2453 101.058 52.992 97.645 52.992C92.4823 52.992 88.4077 51.4133 85.421 48.256C82.477 45.056 81.005 40.5973 81.005 34.88C81.005 31.2533 81.6663 28.096 82.989 25.408C84.3543 22.6773 86.2743 20.5653 88.749 19.072C91.2663 17.5787 94.2317 16.832 97.645 16.832ZM97.645 24.256C95.597 24.256 94.061 25.1307 93.037 26.88C92.013 28.5867 91.501 31.2533 91.501 34.88C91.501 38.592 91.9917 41.3013 92.973 43.008C93.997 44.7147 95.5543 45.568 97.645 45.568C99.693 45.568 101.229 44.7147 102.253 43.008C103.277 41.2587 103.789 38.5707 103.789 34.944C103.789 31.232 103.277 28.5227 102.253 26.816C101.272 25.1093 99.7357 24.256 97.645 24.256Z" fill="#141414"/>
<path d="M138.732 16.96C139.969 16.96 141.1 17.1093 142.124 17.408L140.524 27.2C139.244 26.9013 138.22 26.752 137.452 26.752C135.447 26.752 133.911 27.456 132.844 28.864C131.82 30.2293 131.009 32.2987 130.412 35.072V51.904H120.3V17.92H129.132L129.964 24.512C130.732 22.1653 131.884 20.3307 133.42 19.008C134.999 17.6427 136.769 16.96 138.732 16.96Z" fill="#141414"/>
<path d="M161.367 51.904V7.552H187.799L186.711 15.04H171.863V26.816H184.791V34.304H171.863V51.904H161.367Z" fill="#141414"/>
<path d="M190.949 41.408C192.528 41.408 193.872 41.984 194.982 43.136C196.134 44.2453 196.71 45.5893 196.71 47.168C196.71 48.7893 196.134 50.176 194.982 51.328C193.872 52.4373 192.528 52.992 190.949 52.992C189.328 52.992 187.942 52.4373 186.79 51.328C185.68 50.176 185.126 48.7893 185.126 47.168C185.126 45.5893 185.68 44.2453 186.79 43.136C187.942 41.984 189.328 41.408 190.949 41.408Z" fill="#141414"/>
</svg>
